<?xml version="1.0" encoding="utf-8"?>
<!-- Generator: Adobe Illustrator 16.0.0, SVG Export Plug-In . SVG Version: 6.00 Build 0)  -->
<!DOCTYPE svg PUBLIC "-//W3C//DTD SVG 1.1//EN" "http://www.w3.org/Graphics/SVG/1.1/DTD/svg11.dtd">
<svg version="1.1" id="Layer_1" xmlns="http://www.w3.org/2000/svg" xmlns:xlink="http://www.w3.org/1999/xlink" x="0px" y="0px"
	 width="960px" height="560px" viewBox="0 0 960 560" enable-background="new 0 0 960 560" xml:space="preserve">
<path fill="#FFFFFF" stroke="#000000" stroke-miterlimit="10" d="M450.53,62.01c0.939,0.004,1.875,0.021,2.808,0.049
	C452.401,62.042,451.469,62.014,450.53,62.01z"/>
<path fill="#1800BF" stroke="#000000" stroke-miterlimit="10" d="M453.34,62.06c38.24,1.15,71.521,21.99,90.03,52.72
	c0.61,1.01,1.21,2.04,1.79,3.07c0.59,1.07,1.18,2.15,1.74,3.24c0.31,0.57,0.59,1.14,0.869,1.72c0.58,1.16,1.131,2.32,1.66,3.5
	c0.54,1.21,1.061,2.42,1.561,3.64l0.01,0.01c0.49,1.22,0.97,2.45,1.43,3.7c0.301,0.83,0.59,1.67,0.88,2.51s0.561,1.68,0.82,2.53
	c0.25,0.79,0.49,1.59,0.71,2.4c0.28,0.96,0.54,1.93,0.79,2.9c0.21,0.82,0.41,1.65,0.59,2.47c0.21,0.87,0.4,1.75,0.58,2.64
	c0.15,0.72,0.29,1.44,0.41,2.16c0.2,1.05,0.38,2.12,0.54,3.19c0.14,0.89,0.26,1.8,0.38,2.7c0.11,0.91,0.22,1.82,0.311,2.73
	c0.21,2.08,0.359,4.17,0.449,6.29c0.07,1.59,0.11,3.2,0.11,4.82c0,60.2-48.8,109-109,109c-56.61,0-102.5,46.14-102.5,102.75
	c0,56.54,45.78,101.75,102.3,102.75h0.2c0.31,0,0.61-0.25,0.92-0.26c0.58,0,1.15-0.13,1.73-0.15
	C568.01,483.42,661,389.32,661,273.56C661,158.03,568.38,64.1,453.34,62.06z M449.5,402c-10.77,0-19.5-8.73-19.5-19.5
	s8.73-19.5,19.5-19.5s19.5,8.73,19.5,19.5S460.27,402,449.5,402z"/>
<circle fill="#FFFFFF" stroke="#000000" stroke-miterlimit="10" cx="449.5" cy="382.5" r="19.5"/>
<circle fill="#FFFFFF" stroke="#000000" stroke-miterlimit="10" cx="449.5" cy="171.5" r="19.5"/>
<circle fill="#FFFFFF" stroke="#000000" stroke-miterlimit="10" cx="449.5" cy="382.5" r="19.5"/>
<path fill="#150600" stroke="#000000" stroke-miterlimit="10" d="M558.89,166.18c-0.09-2.12-0.239-4.21-0.449-6.29
	c-0.091-0.91-0.2-1.82-0.311-2.73c-0.12-0.9-0.24-1.81-0.38-2.7c-0.16-1.07-0.34-2.14-0.54-3.19c-0.13-0.72-0.27-1.44-0.41-2.16
	c-0.18-0.89-0.37-1.77-0.58-2.64c-0.189-0.83-0.39-1.65-0.59-2.47c-0.25-0.97-0.51-1.94-0.79-2.9c-0.229-0.81-0.47-1.6-0.71-2.4
	c-0.27-0.85-0.54-1.69-0.82-2.53c-0.29-0.84-0.579-1.68-0.88-2.51c-0.46-1.25-0.939-2.48-1.43-3.7l-0.01-0.01
	c-0.5-1.22-1.021-2.43-1.561-3.64c-0.529-1.18-1.08-2.34-1.66-3.5c-0.279-0.57-0.569-1.15-0.869-1.72
	c-0.561-1.09-1.15-2.17-1.74-3.24c-0.58-1.03-1.18-2.06-1.79-3.07c-19.01-31.37-53.45-52.34-92.84-52.52
	c-0.18-0.01-0.35,0.24-0.53,0.24h-0.5C332.69,62.5,238,157.19,238,274c0,116.81,94.69,211.5,211.5,211.5h0.3
	c-56.52-1-102.3-46.21-102.3-102.75C347.5,326.14,393.39,280,450,280c60.2,0,109-48.8,109-109
	C559,169.38,558.96,167.77,558.89,166.18z M449.5,191c-10.77,0-19.5-8.73-19.5-19.5s8.73-19.5,19.5-19.5s19.5,8.73,19.5,19.5
	S460.27,191,449.5,191z"/>
<circle fill="#FFFFFF" stroke="#000000" stroke-miterlimit="10" cx="449.5" cy="171.5" r="19.5"/>
<circle fill="#1800BF" stroke="#000000" stroke-miterlimit="10" cx="449.5" cy="171.5" r="19.5"/>
<circle fill="#150600" stroke="#000000" stroke-miterlimit="10" cx="449.5" cy="382.5" r="19.5"/>
</svg>
